<?xml version="1.0" encoding="UTF-8" standalone="no"?>
<!DOCTYPE svg PUBLIC "-//W3C//DTD SVG 1.1//EN"
 "http://www.w3.org/Graphics/SVG/1.1/DTD/svg11.dtd">
<!-- Generated by graphviz version 6.0.1 (20220911.2005)
 -->
<!-- Title: snakemake_dag Pages: 1 -->
<svg width="267pt" height="625pt"
 viewBox="0.00 0.00 267.25 625.00" xmlns="http://www.w3.org/2000/svg" xmlns:xlink="http://www.w3.org/1999/xlink">
<g id="graph0" class="graph" transform="scale(1 1) rotate(0) translate(4 621)">
<title>snakemake_dag</title>
<polygon fill="white" stroke="none" points="-4,4 -4,-621 263.25,-621 263.25,4 -4,4"/>
<!-- 0 -->
<g id="node1" class="node">
<title>0</title>
<path fill="none" stroke="#56d8c1" stroke-width="2" stroke-dasharray="5,2" d="M131.75,-36C131.75,-36 101.75,-36 101.75,-36 95.75,-36 89.75,-30 89.75,-24 89.75,-24 89.75,-12 89.75,-12 89.75,-6 95.75,0 101.75,0 101.75,0 131.75,0 131.75,0 137.75,0 143.75,-6 143.75,-12 143.75,-12 143.75,-24 143.75,-24 143.75,-30 137.75,-36 131.75,-36"/>
<text text-anchor="middle" x="116.75" y="-15.5" font-family="sans" font-size="10.00">all</text>
</g>
<!-- 1 -->
<g id="node2" class="node">
<title>1</title>
<path fill="none" stroke="#bed856" stroke-width="2" stroke-dasharray="5,2" d="M131.75,-108C131.75,-108 101.75,-108 101.75,-108 95.75,-108 89.75,-102 89.75,-96 89.75,-96 89.75,-84 89.75,-84 89.75,-78 95.75,-72 101.75,-72 101.75,-72 131.75,-72 131.75,-72 137.75,-72 143.75,-78 143.75,-84 143.75,-84 143.75,-96 143.75,-96 143.75,-102 137.75,-108 131.75,-108"/>
<text text-anchor="middle" x="116.75" y="-87.5" font-family="sans" font-size="10.00">plot</text>
</g>
<!-- 1&#45;&gt;0 -->
<g id="edge1" class="edge">
<title>1&#45;&gt;0</title>
<path fill="none" stroke="grey" stroke-width="2" d="M116.75,-71.7C116.75,-63.98 116.75,-54.71 116.75,-46.11"/>
<polygon fill="grey" stroke="grey" stroke-width="2" points="120.25,-46.1 116.75,-36.1 113.25,-46.1 120.25,-46.1"/>
</g>
<!-- 2 -->
<g id="node3" class="node">
<title>2</title>
<path fill="none" stroke="#59d856" stroke-width="2" stroke-dasharray="5,2" d="M182.25,-180C182.25,-180 141.25,-180 141.25,-180 135.25,-180 129.25,-174 129.25,-168 129.25,-168 129.25,-156 129.25,-156 129.25,-150 135.25,-144 141.25,-144 141.25,-144 182.25,-144 182.25,-144 188.25,-144 194.25,-150 194.25,-156 194.25,-156 194.25,-168 194.25,-168 194.25,-174 188.25,-180 182.25,-180"/>
<text text-anchor="middle" x="161.75" y="-159.5" font-family="sans" font-size="10.00">get_depth</text>
</g>
<!-- 2&#45;&gt;1 -->
<g id="edge2" class="edge">
<title>2&#45;&gt;1</title>
<path fill="none" stroke="grey" stroke-width="2" d="M150.63,-143.7C145.4,-135.56 139.05,-125.69 133.27,-116.7"/>
<polygon fill="grey" stroke="grey" stroke-width="2" points="136.1,-114.62 127.75,-108.1 130.21,-118.41 136.1,-114.62"/>
</g>
<!-- 3 -->
<g id="node4" class="node">
<title>3</title>
<path fill="none" stroke="#d85656" stroke-width="2" stroke-dasharray="5,2" d="M192.75,-252C192.75,-252 138.75,-252 138.75,-252 132.75,-252 126.75,-246 126.75,-240 126.75,-240 126.75,-228 126.75,-228 126.75,-222 132.75,-216 138.75,-216 138.75,-216 192.75,-216 192.75,-216 198.75,-216 204.75,-222 204.75,-228 204.75,-228 204.75,-240 204.75,-240 204.75,-246 198.75,-252 192.75,-252"/>
<text text-anchor="middle" x="165.75" y="-231.5" font-family="sans" font-size="10.00">subset_align</text>
</g>
<!-- 3&#45;&gt;2 -->
<g id="edge4" class="edge">
<title>3&#45;&gt;2</title>
<path fill="none" stroke="grey" stroke-width="2" d="M164.76,-215.7C164.32,-207.98 163.79,-198.71 163.3,-190.11"/>
<polygon fill="grey" stroke="grey" stroke-width="2" points="166.79,-189.89 162.73,-180.1 159.8,-190.29 166.79,-189.89"/>
</g>
<!-- 4 -->
<g id="node5" class="node">
<title>4</title>
<path fill="none" stroke="#88d856" stroke-width="2" stroke-dasharray="5,2" d="M197.25,-396C197.25,-396 148.25,-396 148.25,-396 142.25,-396 136.25,-390 136.25,-384 136.25,-384 136.25,-372 136.25,-372 136.25,-366 142.25,-360 148.25,-360 148.25,-360 197.25,-360 197.25,-360 203.25,-360 209.25,-366 209.25,-372 209.25,-372 209.25,-384 209.25,-384 209.25,-390 203.25,-396 197.25,-396"/>
<text text-anchor="middle" x="172.75" y="-381" font-family="sans" font-size="10.00">align_reads</text>
<text text-anchor="middle" x="172.75" y="-370" font-family="sans" font-size="10.00">sample: tu</text>
</g>
<!-- 4&#45;&gt;3 -->
<g id="edge5" class="edge">
<title>4&#45;&gt;3</title>
<path fill="none" stroke="grey" stroke-width="2" d="M171.91,-359.87C170.71,-335.67 168.52,-291.21 167.1,-262.39"/>
<polygon fill="grey" stroke="grey" stroke-width="2" points="170.59,-262 166.6,-252.19 163.59,-262.35 170.59,-262"/>
</g>
<!-- 9 -->
<g id="node10" class="node">
<title>9</title>
<path fill="none" stroke="#56d88a" stroke-width="2" stroke-dasharray="5,2" d="M247.25,-324C247.25,-324 198.25,-324 198.25,-324 192.25,-324 186.25,-318 186.25,-312 186.25,-312 186.25,-300 186.25,-300 186.25,-294 192.25,-288 198.25,-288 198.25,-288 247.25,-288 247.25,-288 253.25,-288 259.25,-294 259.25,-300 259.25,-300 259.25,-312 259.25,-312 259.25,-318 253.25,-324 247.25,-324"/>
<text text-anchor="middle" x="222.75" y="-303.5" font-family="sans" font-size="10.00">index_align</text>
</g>
<!-- 4&#45;&gt;9 -->
<g id="edge12" class="edge">
<title>4&#45;&gt;9</title>
<path fill="none" stroke="grey" stroke-width="2" d="M185.11,-359.7C190.98,-351.47 198.12,-341.48 204.59,-332.42"/>
<polygon fill="grey" stroke="grey" stroke-width="2" points="207.57,-334.28 210.53,-324.1 201.87,-330.21 207.57,-334.28"/>
</g>
<!-- 5 -->
<g id="node6" class="node">
<title>5</title>
<path fill="none" stroke="#d8bc56" stroke-width="2" stroke-dasharray="5,2" d="M98.25,-545C98.25,-545 25.25,-545 25.25,-545 19.25,-545 13.25,-539 13.25,-533 13.25,-533 13.25,-516 13.25,-516 13.25,-510 19.25,-504 25.25,-504 25.25,-504 98.25,-504 98.25,-504 104.25,-504 110.25,-510 110.25,-516 110.25,-516 110.25,-533 110.25,-533 110.25,-539 104.25,-545 98.25,-545"/>
<text text-anchor="middle" x="61.75" y="-533" font-family="sans" font-size="10.00">gunzip_data</text>
<text text-anchor="middle" x="61.75" y="-522" font-family="sans" font-size="10.00">ext: fa</text>
<text text-anchor="middle" x="61.75" y="-511" font-family="sans" font-size="10.00">name: reference</text>
</g>
<!-- 5&#45;&gt;4 -->
<g id="edge7" class="edge">
<title>5&#45;&gt;4</title>
<path fill="none" stroke="grey" stroke-width="2" d="M110.25,-521.82C149.05,-517.6 201.2,-504.87 227.75,-468 243.09,-446.7 223.58,-421.08 203.68,-402.81"/>
<polygon fill="grey" stroke="grey" stroke-width="2" points="205.94,-400.13 196.1,-396.19 201.33,-405.41 205.94,-400.13"/>
</g>
<!-- 7 -->
<g id="node8" class="node">
<title>7</title>
<path fill="none" stroke="#568ad8" stroke-width="2" stroke-dasharray="5,2" d="M97.25,-468C97.25,-468 26.25,-468 26.25,-468 20.25,-468 14.25,-462 14.25,-456 14.25,-456 14.25,-444 14.25,-444 14.25,-438 20.25,-432 26.25,-432 26.25,-432 97.25,-432 97.25,-432 103.25,-432 109.25,-438 109.25,-444 109.25,-444 109.25,-456 109.25,-456 109.25,-462 103.25,-468 97.25,-468"/>
<text text-anchor="middle" x="61.75" y="-447.5" font-family="sans" font-size="10.00">index_reference</text>
</g>
<!-- 5&#45;&gt;7 -->
<g id="edge11" class="edge">
<title>5&#45;&gt;7</title>
<path fill="none" stroke="grey" stroke-width="2" d="M61.75,-503.69C61.75,-495.91 61.75,-486.84 61.75,-478.45"/>
<polygon fill="grey" stroke="grey" stroke-width="2" points="65.25,-478.32 61.75,-468.32 58.25,-478.32 65.25,-478.32"/>
</g>
<!-- 12 -->
<g id="node13" class="node">
<title>12</title>
<path fill="none" stroke="#88d856" stroke-width="2" stroke-dasharray="5,2" d="M86.25,-396C86.25,-396 37.25,-396 37.25,-396 31.25,-396 25.25,-390 25.25,-384 25.25,-384 25.25,-372 25.25,-372 25.25,-366 31.25,-360 37.25,-360 37.25,-360 86.25,-360 86.25,-360 92.25,-360 98.25,-366 98.25,-372 98.25,-372 98.25,-384 98.25,-384 98.25,-390 92.25,-396 86.25,-396"/>
<text text-anchor="middle" x="61.75" y="-381" font-family="sans" font-size="10.00">align_reads</text>
<text text-anchor="middle" x="61.75" y="-370" font-family="sans" font-size="10.00">sample: wt</text>
</g>
<!-- 5&#45;&gt;12 -->
<g id="edge16" class="edge">
<title>5&#45;&gt;12</title>
<path fill="none" stroke="grey" stroke-width="2" d="M33.34,-503.85C22.22,-494.43 10.71,-482.12 4.75,-468 -1.47,-453.26 -1.64,-446.67 4.75,-432 9.68,-420.68 18.36,-410.68 27.48,-402.51"/>
<polygon fill="grey" stroke="grey" stroke-width="2" points="29.74,-405.19 35.17,-396.09 25.25,-399.81 29.74,-405.19"/>
</g>
<!-- 6 -->
<g id="node7" class="node">
<title>6</title>
<path fill="none" stroke="#56c1d8" stroke-width="2" stroke-dasharray="5,2" d="M107.75,-617C107.75,-617 15.75,-617 15.75,-617 9.75,-617 3.75,-611 3.75,-605 3.75,-605 3.75,-593 3.75,-593 3.75,-587 9.75,-581 15.75,-581 15.75,-581 107.75,-581 107.75,-581 113.75,-581 119.75,-587 119.75,-593 119.75,-593 119.75,-605 119.75,-605 119.75,-611 113.75,-617 107.75,-617"/>
<text text-anchor="middle" x="61.75" y="-596.5" font-family="sans" font-size="10.00">download_reference</text>
</g>
<!-- 6&#45;&gt;5 -->
<g id="edge10" class="edge">
<title>6&#45;&gt;5</title>
<path fill="none" stroke="grey" stroke-width="2" d="M61.75,-580.82C61.75,-573.2 61.75,-564 61.75,-555.32"/>
<polygon fill="grey" stroke="grey" stroke-width="2" points="65.25,-555.12 61.75,-545.12 58.25,-555.12 65.25,-555.12"/>
</g>
<!-- 7&#45;&gt;4 -->
<g id="edge8" class="edge">
<title>7&#45;&gt;4</title>
<path fill="none" stroke="grey" stroke-width="2" d="M88.9,-431.88C103.28,-422.81 121.13,-411.55 136.66,-401.76"/>
<polygon fill="grey" stroke="grey" stroke-width="2" points="138.9,-404.48 145.49,-396.19 135.17,-398.56 138.9,-404.48"/>
</g>
<!-- 7&#45;&gt;12 -->
<g id="edge17" class="edge">
<title>7&#45;&gt;12</title>
<path fill="none" stroke="grey" stroke-width="2" d="M61.75,-431.7C61.75,-423.98 61.75,-414.71 61.75,-406.11"/>
<polygon fill="grey" stroke="grey" stroke-width="2" points="65.25,-406.1 61.75,-396.1 58.25,-406.1 65.25,-406.1"/>
</g>
<!-- 8 -->
<g id="node9" class="node">
<title>8</title>
<path fill="none" stroke="#d88d56" stroke-width="2" stroke-dasharray="5,2" d="M206.25,-468C206.25,-468 139.25,-468 139.25,-468 133.25,-468 127.25,-462 127.25,-456 127.25,-456 127.25,-444 127.25,-444 127.25,-438 133.25,-432 139.25,-432 139.25,-432 206.25,-432 206.25,-432 212.25,-432 218.25,-438 218.25,-444 218.25,-444 218.25,-456 218.25,-456 218.25,-462 212.25,-468 206.25,-468"/>
<text text-anchor="middle" x="172.75" y="-447.5" font-family="sans" font-size="10.00">download_data</text>
</g>
<!-- 8&#45;&gt;4 -->
<g id="edge9" class="edge">
<title>8&#45;&gt;4</title>
<path fill="none" stroke="grey" stroke-width="2" d="M172.75,-431.7C172.75,-423.98 172.75,-414.71 172.75,-406.11"/>
<polygon fill="grey" stroke="grey" stroke-width="2" points="176.25,-406.1 172.75,-396.1 169.25,-406.1 176.25,-406.1"/>
</g>
<!-- 8&#45;&gt;12 -->
<g id="edge18" class="edge">
<title>8&#45;&gt;12</title>
<path fill="none" stroke="grey" stroke-width="2" d="M145.6,-431.88C131.22,-422.81 113.37,-411.55 97.84,-401.76"/>
<polygon fill="grey" stroke="grey" stroke-width="2" points="99.33,-398.56 89.01,-396.19 95.6,-404.48 99.33,-398.56"/>
</g>
<!-- 9&#45;&gt;3 -->
<g id="edge6" class="edge">
<title>9&#45;&gt;3</title>
<path fill="none" stroke="grey" stroke-width="2" d="M208.66,-287.7C201.83,-279.3 193.49,-269.07 185.99,-259.86"/>
<polygon fill="grey" stroke="grey" stroke-width="2" points="188.71,-257.65 179.68,-252.1 183.28,-262.07 188.71,-257.65"/>
</g>
<!-- 10 -->
<g id="node11" class="node">
<title>10</title>
<path fill="none" stroke="#59d856" stroke-width="2" stroke-dasharray="5,2" d="M96.25,-180C96.25,-180 55.25,-180 55.25,-180 49.25,-180 43.25,-174 43.25,-168 43.25,-168 43.25,-156 43.25,-156 43.25,-150 49.25,-144 55.25,-144 55.25,-144 96.25,-144 96.25,-144 102.25,-144 108.25,-150 108.25,-156 108.25,-156 108.25,-168 108.25,-168 108.25,-174 102.25,-180 96.25,-180"/>
<text text-anchor="middle" x="75.75" y="-159.5" font-family="sans" font-size="10.00">get_depth</text>
</g>
<!-- 10&#45;&gt;1 -->
<g id="edge3" class="edge">
<title>10&#45;&gt;1</title>
<path fill="none" stroke="grey" stroke-width="2" d="M85.89,-143.7C90.6,-135.64 96.31,-125.89 101.53,-116.98"/>
<polygon fill="grey" stroke="grey" stroke-width="2" points="104.7,-118.5 106.73,-108.1 98.66,-114.96 104.7,-118.5"/>
</g>
<!-- 11 -->
<g id="node12" class="node">
<title>11</title>
<path fill="none" stroke="#d85656" stroke-width="2" stroke-dasharray="5,2" d="M96.75,-252C96.75,-252 42.75,-252 42.75,-252 36.75,-252 30.75,-246 30.75,-240 30.75,-240 30.75,-228 30.75,-228 30.75,-222 36.75,-216 42.75,-216 42.75,-216 96.75,-216 96.75,-216 102.75,-216 108.75,-222 108.75,-228 108.75,-228 108.75,-240 108.75,-240 108.75,-246 102.75,-252 96.75,-252"/>
<text text-anchor="middle" x="69.75" y="-231.5" font-family="sans" font-size="10.00">subset_align</text>
</g>
<!-- 11&#45;&gt;10 -->
<g id="edge13" class="edge">
<title>11&#45;&gt;10</title>
<path fill="none" stroke="grey" stroke-width="2" d="M71.23,-215.7C71.89,-207.98 72.69,-198.71 73.43,-190.11"/>
<polygon fill="grey" stroke="grey" stroke-width="2" points="76.92,-190.37 74.28,-180.1 69.94,-189.77 76.92,-190.37"/>
</g>
<!-- 12&#45;&gt;11 -->
<g id="edge14" class="edge">
<title>12&#45;&gt;11</title>
<path fill="none" stroke="grey" stroke-width="2" d="M49.02,-359.85C42.46,-349.92 35.14,-336.88 31.75,-324 27.68,-308.53 26.85,-303.23 31.75,-288 34.94,-278.08 40.75,-268.44 46.88,-260.17"/>
<polygon fill="grey" stroke="grey" stroke-width="2" points="49.82,-262.09 53.29,-252.08 44.33,-257.74 49.82,-262.09"/>
</g>
<!-- 13 -->
<g id="node14" class="node">
<title>13</title>
<path fill="none" stroke="#56d88a" stroke-width="2" stroke-dasharray="5,2" d="M102.25,-324C102.25,-324 53.25,-324 53.25,-324 47.25,-324 41.25,-318 41.25,-312 41.25,-312 41.25,-300 41.25,-300 41.25,-294 47.25,-288 53.25,-288 53.25,-288 102.25,-288 102.25,-288 108.25,-288 114.25,-294 114.25,-300 114.25,-300 114.25,-312 114.25,-312 114.25,-318 108.25,-324 102.25,-324"/>
<text text-anchor="middle" x="77.75" y="-303.5" font-family="sans" font-size="10.00">index_align</text>
</g>
<!-- 12&#45;&gt;13 -->
<g id="edge19" class="edge">
<title>12&#45;&gt;13</title>
<path fill="none" stroke="grey" stroke-width="2" d="M65.71,-359.7C67.47,-351.98 69.59,-342.71 71.55,-334.11"/>
<polygon fill="grey" stroke="grey" stroke-width="2" points="75.02,-334.63 73.84,-324.1 68.2,-333.07 75.02,-334.63"/>
</g>
<!-- 13&#45;&gt;11 -->
<g id="edge15" class="edge">
<title>13&#45;&gt;11</title>
<path fill="none" stroke="grey" stroke-width="2" d="M75.77,-287.7C74.89,-279.98 73.83,-270.71 72.85,-262.11"/>
<polygon fill="grey" stroke="grey" stroke-width="2" points="76.32,-261.64 71.71,-252.1 69.36,-262.44 76.32,-261.64"/>
</g>
</g>
</svg>
